<svg width="555" height="128" viewBox="0 0 555 128" fill="none" xmlns="http://www.w3.org/2000/svg">
<path d="M50.6574 4.57475C53.5904 1.64547 57.5671 0 61.7135 0H104.158C109.733 0 112.524 6.73821 108.58 10.677L59.7697 59.4252C56.8367 62.3545 52.86 64 48.7136 64H6.2692C0.693964 64 -2.09703 57.2618 1.84676 53.323L50.6574 4.57475Z" fill="url(#paint0_linear_28_57)"/>
<path d="M50.6574 68.5748C53.5904 65.6455 57.5671 64 61.7135 64H104.158C109.733 64 112.524 70.7382 108.58 74.677L59.7697 123.425C56.8367 126.355 52.86 128 48.7136 128H6.2692C0.693964 128 -2.09703 121.262 1.84676 117.323L50.6574 68.5748Z" fill="url(#paint1_linear_28_57)"/>
<path d="M180.719 54.8409C180.537 53.0076 179.757 51.5833 178.378 50.5682C177 49.553 175.128 49.0455 172.765 49.0455C171.159 49.0455 169.803 49.2727 168.696 49.7273C167.59 50.1667 166.742 50.7803 166.151 51.5682C165.575 52.3561 165.287 53.25 165.287 54.25C165.257 55.0833 165.431 55.8106 165.81 56.4318C166.204 57.053 166.742 57.5909 167.424 58.0455C168.106 58.4848 168.893 58.8712 169.787 59.2045C170.681 59.5227 171.636 59.7955 172.651 60.0227L176.833 61.0227C178.863 61.4773 180.727 62.0833 182.424 62.8409C184.121 63.5985 185.59 64.5303 186.833 65.6364C188.075 66.7424 189.037 68.0455 189.719 69.5455C190.416 71.0455 190.772 72.7652 190.787 74.7045C190.772 77.553 190.045 80.0227 188.606 82.1136C187.181 84.1894 185.121 85.803 182.424 86.9545C179.742 88.0909 176.507 88.6591 172.719 88.6591C168.962 88.6591 165.689 88.0833 162.901 86.9318C160.128 85.7803 157.962 84.0758 156.401 81.8182C154.856 79.5455 154.045 76.7348 153.969 73.3864H163.492C163.598 74.947 164.045 76.25 164.833 77.2955C165.636 78.3258 166.704 79.1061 168.037 79.6364C169.386 80.1515 170.909 80.4091 172.606 80.4091C174.272 80.4091 175.719 80.1667 176.946 79.6818C178.189 79.197 179.151 78.5227 179.833 77.6591C180.515 76.7955 180.856 75.803 180.856 74.6818C180.856 73.6364 180.545 72.7576 179.924 72.0455C179.318 71.3333 178.424 70.7273 177.242 70.2273C176.075 69.7273 174.643 69.2727 172.946 68.8636L167.878 67.5909C163.954 66.6364 160.856 65.1439 158.583 63.1136C156.31 61.0833 155.181 58.3485 155.196 54.9091C155.181 52.0909 155.931 49.6288 157.446 47.5227C158.977 45.4167 161.075 43.7727 163.742 42.5909C166.409 41.4091 169.439 40.8182 172.833 40.8182C176.287 40.8182 179.303 41.4091 181.878 42.5909C184.469 43.7727 186.484 45.4167 187.924 47.5227C189.363 49.6288 190.106 52.0682 190.151 54.8409H180.719ZM194.665 88V53.0909H204.347V88H194.665ZM199.529 48.5909C198.089 48.5909 196.854 48.1136 195.824 47.1591C194.809 46.1894 194.301 45.0303 194.301 43.6818C194.301 42.3485 194.809 41.2045 195.824 40.25C196.854 39.2803 198.089 38.7955 199.529 38.7955C200.968 38.7955 202.195 39.2803 203.21 40.25C204.241 41.2045 204.756 42.3485 204.756 43.6818C204.756 45.0303 204.241 46.1894 203.21 47.1591C202.195 48.1136 200.968 48.5909 199.529 48.5909ZM209.542 88V53.0909H218.77V59.25H219.179C219.906 57.2045 221.118 55.5909 222.815 54.4091C224.512 53.2273 226.542 52.6364 228.906 52.6364C231.3 52.6364 233.338 53.2348 235.02 54.4318C236.701 55.6136 237.823 57.2197 238.383 59.25H238.747C239.459 57.25 240.747 55.6515 242.611 54.4545C244.489 53.2424 246.709 52.6364 249.27 52.6364C252.527 52.6364 255.171 53.6742 257.201 55.75C259.247 57.8106 260.27 60.7348 260.27 64.5227V88H250.611V66.4318C250.611 64.4924 250.095 63.0379 249.065 62.0682C248.035 61.0985 246.747 60.6136 245.201 60.6136C243.444 60.6136 242.073 61.1742 241.088 62.2955C240.103 63.4015 239.611 64.8636 239.611 66.6818V88H230.224V66.2273C230.224 64.5152 229.732 63.1515 228.747 62.1364C227.777 61.1212 226.497 60.6136 224.906 60.6136C223.83 60.6136 222.861 60.8864 221.997 61.4318C221.148 61.9621 220.474 62.7121 219.974 63.6818C219.474 64.6364 219.224 65.7576 219.224 67.0455V88H209.542ZM265.357 101.091V53.0909H274.903V58.9545H275.335C275.759 58.0152 276.373 57.0606 277.176 56.0909C277.994 55.1061 279.054 54.2879 280.357 53.6364C281.676 52.9697 283.312 52.6364 285.266 52.6364C287.812 52.6364 290.16 53.303 292.312 54.6364C294.463 55.9545 296.183 57.947 297.471 60.6136C298.759 63.2652 299.403 66.5909 299.403 70.5909C299.403 74.4848 298.774 77.7727 297.516 80.4545C296.274 83.1212 294.577 85.1439 292.426 86.5227C290.289 87.8864 287.895 88.5682 285.244 88.5682C283.365 88.5682 281.766 88.2576 280.448 87.6364C279.145 87.0152 278.077 86.2348 277.244 85.2955C276.41 84.3409 275.774 83.3788 275.335 82.4091H275.039V101.091H265.357ZM274.835 70.5455C274.835 72.6212 275.123 74.4318 275.698 75.9773C276.274 77.5227 277.107 78.7273 278.198 79.5909C279.289 80.4394 280.615 80.8636 282.176 80.8636C283.751 80.8636 285.085 80.4318 286.176 79.5682C287.266 78.6894 288.092 77.4773 288.653 75.9318C289.229 74.3712 289.516 72.5758 289.516 70.5455C289.516 68.5303 289.236 66.7576 288.676 65.2273C288.115 63.697 287.289 62.5 286.198 61.6364C285.107 60.7727 283.766 60.3409 282.176 60.3409C280.6 60.3409 279.266 60.7576 278.176 61.5909C277.1 62.4242 276.274 63.6061 275.698 65.1364C275.123 66.6667 274.835 68.4697 274.835 70.5455ZM312.979 41.4545V88H303.297V41.4545H312.979ZM334.084 88.6818C330.493 88.6818 327.402 87.9545 324.811 86.5C322.235 85.0303 320.251 82.9545 318.857 80.2727C317.463 77.5758 316.766 74.3864 316.766 70.7045C316.766 67.1136 317.463 63.9621 318.857 61.25C320.251 58.5379 322.213 56.4242 324.743 54.9091C327.289 53.3939 330.273 52.6364 333.698 52.6364C336.001 52.6364 338.145 53.0076 340.129 53.75C342.129 54.4773 343.872 55.5758 345.357 57.0455C346.857 58.5152 348.023 60.3636 348.857 62.5909C349.69 64.803 350.107 67.3939 350.107 70.3636V73.0227H320.629V67.0227H340.993C340.993 65.6288 340.69 64.3939 340.084 63.3182C339.478 62.2424 338.637 61.4015 337.561 60.7955C336.501 60.1742 335.266 59.8636 333.857 59.8636C332.387 59.8636 331.084 60.2045 329.948 60.8864C328.826 61.553 327.948 62.4545 327.311 63.5909C326.675 64.7121 326.349 65.9621 326.334 67.3409V73.0455C326.334 74.7727 326.652 76.2652 327.289 77.5227C327.94 78.7803 328.857 79.75 330.039 80.4318C331.22 81.1136 332.622 81.4545 334.243 81.4545C335.319 81.4545 336.304 81.303 337.198 81C338.092 80.697 338.857 80.2424 339.493 79.6364C340.129 79.0303 340.614 78.2879 340.948 77.4091L349.902 78C349.448 80.1515 348.516 82.0303 347.107 83.6364C345.713 85.2273 343.91 86.4697 341.698 87.3636C339.501 88.2424 336.963 88.6818 334.084 88.6818ZM374.322 88H363.776L379.845 41.4545H392.526L408.572 88H398.026L386.367 52.0909H386.004L374.322 88ZM373.663 69.7045H398.572V77.3864H373.663V69.7045ZM422.671 88.5682C420.02 88.5682 417.618 87.8864 415.466 86.5227C413.33 85.1439 411.633 83.1212 410.376 80.4545C409.133 77.7727 408.512 74.4848 408.512 70.5909C408.512 66.5909 409.156 63.2652 410.444 60.6136C411.732 57.947 413.444 55.9545 415.58 54.6364C417.732 53.303 420.088 52.6364 422.648 52.6364C424.603 52.6364 426.232 52.9697 427.535 53.6364C428.853 54.2879 429.913 55.1061 430.716 56.0909C431.535 57.0606 432.156 58.0152 432.58 58.9545H432.876V41.4545H442.535V88H432.989V82.4091H432.58C432.126 83.3788 431.482 84.3409 430.648 85.2955C429.83 86.2348 428.762 87.0152 427.444 87.6364C426.141 88.2576 424.55 88.5682 422.671 88.5682ZM425.739 80.8636C427.3 80.8636 428.618 80.4394 429.694 79.5909C430.785 78.7273 431.618 77.5227 432.194 75.9773C432.785 74.4318 433.08 72.6212 433.08 70.5455C433.08 68.4697 432.792 66.6667 432.216 65.1364C431.641 63.6061 430.807 62.4242 429.716 61.5909C428.626 60.7576 427.3 60.3409 425.739 60.3409C424.148 60.3409 422.807 60.7727 421.716 61.6364C420.626 62.5 419.8 63.697 419.239 65.2273C418.679 66.7576 418.398 68.5303 418.398 70.5455C418.398 72.5758 418.679 74.3712 419.239 75.9318C419.815 77.4773 420.641 78.6894 421.716 79.5682C422.807 80.4318 424.148 80.8636 425.739 80.8636ZM447.935 88V53.0909H457.162V59.25H457.571C458.299 57.2045 459.511 55.5909 461.208 54.4091C462.905 53.2273 464.935 52.6364 467.299 52.6364C469.692 52.6364 471.73 53.2348 473.412 54.4318C475.094 55.6136 476.215 57.2197 476.776 59.25H477.139C477.852 57.25 479.139 55.6515 481.003 54.4545C482.882 53.2424 485.102 52.6364 487.662 52.6364C490.92 52.6364 493.564 53.6742 495.594 55.75C497.639 57.8106 498.662 60.7348 498.662 64.5227V88H489.003V66.4318C489.003 64.4924 488.488 63.0379 487.458 62.0682C486.427 61.0985 485.139 60.6136 483.594 60.6136C481.836 60.6136 480.465 61.1742 479.48 62.2955C478.495 63.4015 478.003 64.8636 478.003 66.6818V88H468.617V66.2273C468.617 64.5152 468.124 63.1515 467.139 62.1364C466.17 61.1212 464.889 60.6136 463.299 60.6136C462.223 60.6136 461.253 60.8864 460.389 61.4318C459.541 61.9621 458.867 62.7121 458.367 63.6818C457.867 64.6364 457.617 65.7576 457.617 67.0455V88H447.935ZM503.75 88V53.0909H513.432V88H503.75ZM508.614 48.5909C507.174 48.5909 505.939 48.1136 504.909 47.1591C503.894 46.1894 503.386 45.0303 503.386 43.6818C503.386 42.3485 503.894 41.2045 504.909 40.25C505.939 39.2803 507.174 38.7955 508.614 38.7955C510.053 38.7955 511.28 39.2803 512.295 40.25C513.326 41.2045 513.841 42.3485 513.841 43.6818C513.841 45.0303 513.326 46.1894 512.295 47.1591C511.28 48.1136 510.053 48.5909 508.614 48.5909ZM528.309 67.8182V88H518.627V53.0909H527.855V59.25H528.264C529.036 57.2197 530.332 55.6136 532.15 54.4318C533.968 53.2348 536.173 52.6364 538.764 52.6364C541.188 52.6364 543.302 53.1667 545.105 54.2273C546.908 55.2879 548.309 56.803 549.309 58.7727C550.309 60.7273 550.809 63.0606 550.809 65.7727V88H541.127V67.5C541.143 65.3636 540.597 63.697 539.491 62.5C538.385 61.2879 536.862 60.6818 534.923 60.6818C533.62 60.6818 532.468 60.9621 531.468 61.5227C530.483 62.0833 529.711 62.9015 529.15 63.9773C528.605 65.0379 528.324 66.3182 528.309 67.8182Z" fill="black"/>
<defs>
<linearGradient id="paint0_linear_28_57" x1="55.2136" y1="0" x2="55.2136" y2="64" gradientUnits="userSpaceOnUse">
<stop stop-color="#35DBFF"/>
<stop offset="1" stop-color="#2BB8D7"/>
</linearGradient>
<linearGradient id="paint1_linear_28_57" x1="55.2136" y1="64" x2="55.2136" y2="128" gradientUnits="userSpaceOnUse">
<stop stop-color="#35DBFF"/>
<stop offset="1" stop-color="#2BB8D7"/>
</linearGradient>
</defs>
</svg>
